<?xml version="1.0"?>
<svg fill="#fff" width="20" height="20" xmlns="http://www.w3.org/2000/svg" xmlns:svg="http://www.w3.org/2000/svg">
 <g class="layer">
  <title>Layer 1</title>
  <g id="svg_10">
   <path d="m10.18,0.8c-7.5,0 -12.18,7.99 -8.43,14.34c1.75,2.94 4.97,4.79 8.43,4.79c7.5,0 12.18,-7.99 8.43,-14.34c-1.75,-2.94 -4.97,-4.77 -8.43,-4.77m-0.64,15.23c0,0 1.37,-5.48 3.68,-5.75c0,0 0.71,-0.51 0.71,5.75l0.91,0c0,0 -0.07,-4.59 1.29,-7.1c0,0 0.05,-1.8 -1.04,-2.78c-1.09,-1 -1.31,3.12 -5.7,5.16c0,0 -0.28,-0.25 -0.51,-0.29c-0.2,-0.07 -1.98,1 -3.72,1.33c-1.75,0.32 -0.38,1.27 0.2,3.69l4.19,0l-0.01,0zm-9.47,-15.6m7.1,9.02c0.73,-1.82 2.15,-2.27 4.21,-2.21c0.43,0 0.64,0.96 -0.11,0.98c-1.6,0.05 -2.35,0.37 -3.3,1.74c-0.23,0.34 -1.02,-0.02 -0.84,-0.51l0,0l0.02,0l0.01,0zm-6.89,-9.41m4.92,8.89c0.99,-2.41 3.02,-3.54 6.03,-3.47c0.51,0 0.78,1 0,1c-2,0.05 -3.57,0.27 -5.22,3c-0.23,0.37 -1.04,0 -0.82,-0.54l0,0l0.01,0.01zm-4.81,-8.79m3.17,7.91c1.31,-2.78 4.01,-4.43 7.68,-4.4c0.64,0 0.84,1.05 -0.11,1.11c-2.48,0.07 -4.59,0.42 -6.63,3.78c-0.28,0.44 -1.22,0.13 -0.91,-0.49l-0.02,0l-0.01,0z" fill-rule="evenodd" id="svg_2"/>
  </g>
 </g>
</svg>