<?xml version="1.0"?>
<svg width="63.1" height="19.18" xmlns="http://www.w3.org/2000/svg" xmlns:svg="http://www.w3.org/2000/svg">
 <g class="layer">
  <title>Layer 1</title>
  <g id="svg_10">
   <path d="m36.88,11.71l0,-3.98l1.55,0l0,3.58q0,0.38 0.19,0.68q0.19,0.31 0.48,0.49q0.31,0.16 0.69,0.16q0.38,0 0.69,-0.16q0.31,-0.19 0.48,-0.49q0.19,-0.31 0.19,-0.68l0,-3.58l1.55,0l0,6.33l-1.55,0l0,-0.56q-0.33,0.33 -0.79,0.54q-0.45,0.21 -0.96,0.21q-0.69,0 -1.27,-0.33q-0.57,-0.33 -0.91,-0.89q-0.33,-0.56 -0.33,-1.27l-0.02,-0.05z" fill-rule="evenodd" id="svg_1" stroke-linecap="round" stroke-linejoin="round" stroke-opacity="0" stroke-width="0"/>
   <path d="m10.49,0.72c-7.08,0 -11.5,7.65 -7.96,13.74c1.65,2.82 4.69,4.59 7.96,4.59c7.08,0 11.5,-7.65 7.96,-13.74c-1.65,-2.82 -4.69,-4.57 -7.96,-4.57m-0.6,14.59c0,0 1.29,-5.25 3.47,-5.51c0,0 0.67,-0.49 0.67,5.51l0.86,0c0,0 -0.07,-4.4 1.22,-6.8c0,0 0.05,-1.72 -0.98,-2.66c-1.03,-0.96 -1.24,2.99 -5.38,4.94c0,0 -0.26,-0.24 -0.48,-0.28c-0.19,-0.07 -1.87,0.96 -3.51,1.27c-1.65,0.31 -0.36,1.22 0.19,3.53l3.95,0zm-8.94,-14.94m6.7,8.64c0.69,-1.74 2.03,-2.17 3.97,-2.12c0.41,0 0.6,0.92 -0.1,0.94c-1.51,0.05 -2.22,0.35 -3.11,1.67c-0.22,0.33 -0.96,-0.02 -0.79,-0.49l0,0l0.02,0zm-6.5,-9.01m4.64,8.52c0.93,-2.31 2.85,-3.39 5.69,-3.32c0.48,0 0.74,0.96 0,0.96c-1.89,0.05 -3.37,0.26 -4.93,2.87c-0.22,0.35 -0.98,0 -0.77,-0.52l0,0zm-4.54,-8.42m2.99,7.58c1.24,-2.66 3.78,-4.24 7.25,-4.21c0.6,0 0.79,1.01 -0.1,1.06c-2.34,0.07 -4.33,0.4 -6.26,3.62c-0.26,0.42 -1.15,0.12 -0.86,-0.47l-0.02,0z" fill-rule="evenodd" id="svg_2"/>
   <path d="m26.34,9.12c-1.6,-0.38 -1.87,-0.64 -1.87,-1.2c0,-0.52 0.5,-0.87 1.24,-0.87c0.72,0 1.43,0.28 2.18,0.82c0.05,0.05 0.1,0.02 0.14,-0.02l0.77,-1.08c0.02,-0.05 0.02,-0.12 -0.02,-0.14c-0.88,-0.71 -1.89,-1.06 -3.06,-1.06c-1.72,0 -2.92,1.01 -2.92,2.49c0,1.58 1.03,2.12 2.82,2.54c1.53,0.35 1.77,0.64 1.77,1.18c0,0.56 -0.53,0.94 -1.34,0.94c-0.93,0 -1.67,-0.31 -2.53,-1.04c-0.02,0 -0.05,-0.02 -0.07,-0.02c-0.02,0 -0.05,0 -0.07,0.05l-0.86,1.01c-0.05,0.05 -0.02,0.12 0,0.14c0.96,0.87 2.2,1.34 3.49,1.34c1.84,0 3.04,-1.01 3.04,-2.57c0,-1.32 -0.79,-2.02 -2.73,-2.52" fill-rule="evenodd" id="svg_3"/>
   <path d="m33.25,7.56c-0.81,0 -1.46,0.33 -2.01,0.96l0,-0.73c0,-0.05 -0.05,-0.09 -0.1,-0.12l-1.43,0c-0.05,0 -0.1,0.05 -0.1,0.12l0,8.05c0,0.05 0.05,0.12 0.1,0.12l1.43,0c0.05,0 0.1,-0.05 0.1,-0.12l0,-2.54c0.55,0.61 1.2,0.89 2.01,0.89c1.48,0 2.99,-1.13 2.99,-3.32c0,-2.19 -1.51,-3.32 -2.99,-3.32m1.34,3.32c0,1.13 -0.69,1.88 -1.67,1.88c-0.96,0 -1.7,-0.8 -1.7,-1.88c0,-1.08 0.74,-1.88 1.7,-1.88c0.96,0 1.67,0.8 1.67,1.88" fill-rule="evenodd" id="svg_4"/>
   <path d="m47.28,7.71l-1.55,0l0,-1.58c0,-0.05 -0.05,-0.12 -0.1,-0.12l-1.43,0c-0.05,0 -0.1,0.05 -0.1,0.12l0,1.58l-0.69,0c-0.05,0 -0.1,0.05 -0.1,0.12l0,1.22c0,0.05 0.05,0.12 0.1,0.12l0.69,0l0,3.15c0,1.27 0.65,1.93 1.89,1.93c0.5,0 0.93,-0.09 1.34,-0.33c0.05,-0.02 0.05,-0.05 0.05,-0.09l0,-1.15c0,-0.07 -0.1,-0.12 -0.17,-0.09c-0.26,0.14 -0.53,0.19 -0.84,0.19c-0.45,0 -0.67,-0.21 -0.67,-0.66l0,-2.94l1.55,0c0.05,0 0.1,-0.05 0.1,-0.12l0,-1.22c0,-0.05 -0.05,-0.12 -0.1,-0.12" fill-rule="evenodd" id="svg_5"/>
   <path d="m52.74,7.71l0,-0.19c0,-0.56 0.22,-0.85 0.72,-0.85c0.29,0 0.53,0.07 0.81,0.16c0.07,0.02 0.14,-0.02 0.14,-0.12l0,-1.18c0,-0.05 -0.02,-0.09 -0.07,-0.09c-0.38,-0.12 -0.79,-0.16 -1.17,-0.16c-1.32,0 -2.01,0.73 -2.01,2.14l0,0.31l-0.69,0c-0.05,0 -0.1,0.05 -0.1,0.12l0,1.22c0,0.05 0.05,0.12 0.1,0.12l0.69,0l0,4.85c0,0.05 0.05,0.12 0.1,0.12l1.43,0c0.05,0 0.1,-0.05 0.1,-0.12l0,-4.85l1.32,0l2.03,4.85c-0.22,0.52 -0.45,0.61 -0.77,0.61c-0.26,0 -0.53,-0.07 -0.79,-0.24c-0.02,0 -0.05,-0.02 -0.1,0c-0.02,0 -0.05,0.02 -0.05,0.05l-0.48,1.06c-0.02,0.05 0,0.12 0.05,0.14c0.5,0.28 0.96,0.4 1.53,0.4c1.05,0 1.63,-0.49 2.15,-1.81l2.46,-6.35c0.02,-0.07 -0.02,-0.14 -0.1,-0.14l-1.48,0c-0.05,0 -0.1,0.02 -0.1,0.07l-1.51,4.31l-1.65,-4.31c-0.02,-0.05 -0.05,-0.07 -0.1,-0.07l-2.44,0" fill-rule="evenodd" id="svg_6"/>
   <path d="m49.58,7.71l-1.43,0c-0.05,0 -0.1,0.05 -0.1,0.12l0,6.19c0,0.05 0.05,0.09 0.1,0.09l1.43,0c0.05,0 0.1,-0.05 0.1,-0.09l0,-6.19c0,-0.05 -0.05,-0.12 -0.1,-0.12" fill-rule="evenodd" id="svg_7"/>
   <path d="m48.86,4.88c-0.79,0 -1.29,0.85 -0.88,1.53c0.19,0.31 0.53,0.52 0.88,0.52c0.79,0 1.27,-0.85 0.88,-1.53c-0.17,-0.33 -0.53,-0.52 -0.88,-0.52" fill-rule="evenodd" id="svg_8"/>
   <path d="m61.32,9.68c-0.55,0 -1,-0.45 -1,-1.01c0,-0.54 0.43,-1.01 1,-1.01c0.55,0 1,0.45 1,1.01c0,0.54 -0.45,0.99 -1,1.01m0.22,-0.89l0.29,0.4l-0.24,0l-0.26,-0.38l-0.22,0l0,0.38l-0.22,0l0,-1.06l0.48,0c0.24,0 0.41,0.12 0.41,0.33c0,0.16 -0.1,0.28 -0.24,0.33m-0.22,-1.01c-0.5,0 -0.91,0.4 -0.91,0.89c0,0.49 0.38,0.89 0.88,0.89c0.5,0 0.91,-0.4 0.91,-0.89c0,-0.49 -0.38,-0.89 -0.88,-0.89m0.05,0.54l-0.26,0l0,0.33l0.26,0c0.14,0 0.22,-0.07 0.22,-0.16c0,-0.12 -0.07,-0.16 -0.22,-0.16" fill-rule="evenodd" id="svg_9"/>
  </g>
 </g>
</svg>